<svg t="1579073284134" class="icon" viewBox="0 0 1024 1024" version="1.1" xmlns="http://www.w3.org/2000/svg" p-id="2421" width="200" height="200"><path d="M938.666667 494.933333h68.266666c10.24 0 17.066667-6.826667 17.066667-17.066666s-6.826667-17.066667-17.066667-17.066667h-68.266666c-10.24 0-17.066667 6.826667-17.066667 17.066667s6.826667 17.066667 17.066667 17.066666zM849.92 276.48c3.413333 0 10.24 0 13.653333-3.413333l47.786667-47.786667c6.826667-6.826667 6.826667-17.066667 0-23.893333s-17.066667-6.826667-23.893333 0l-47.786667 47.786666c-6.826667 6.826667-6.826667 17.066667 0 23.893334 0 3.413333 3.413333 3.413333 10.24 3.413333zM631.466667 187.733333c10.24 0 17.066667-6.826667 17.066666-17.066666V102.4c0-10.24-6.826667-17.066667-17.066666-17.066667s-17.066667 6.826667-17.066667 17.066667v68.266667c0 10.24 6.826667 17.066667 17.066667 17.066666zM402.773333 273.066667c3.413333 3.413333 6.826667 3.413333 13.653334 3.413333s10.24 0 13.653333-3.413333c6.826667-6.826667 6.826667-17.066667 0-23.893334l-47.786667-47.786666c-6.826667-6.826667-17.066667-6.826667-23.893333 0s-6.826667 17.066667 0 23.893333L402.773333 273.066667z" fill="#f1cb35" p-id="2422"></path><path d="M785.066667 460.8c-17.066667 0-37.546667 3.413333-54.613334 6.826667-54.613333-109.226667-163.84-177.493333-283.306666-177.493334-157.013333 0-290.133333 116.053333-314.026667 273.066667-78.506667 23.893333-133.12 98.986667-133.12 184.32 0 105.813333 85.333333 191.146667 187.733333 191.146667h610.986667c126.293333-6.826667 225.28-112.64 225.28-238.933334 0-133.12-105.813333-238.933333-238.933333-238.933333z" fill="#f1cb35" p-id="2423"></path><path d="M542.72 269.653333c81.92 23.893333 153.6 78.506667 197.973333 150.186667 3.413333 6.826667 10.24 10.24 17.066667 6.826667 34.133333-3.413333 64.853333 0 98.986667 10.24h3.413333c10.24 0 17.066667-6.826667 17.066667-17.066667 0-3.413333 0-6.826667-3.413334-10.24-30.72-112.64-129.706667-191.146667-245.76-191.146667-30.72 0-61.44 6.826667-88.746666 17.066667-6.826667 3.413333-10.24 10.24-10.24 17.066667 3.413333 10.24 6.826667 17.066667 13.653333 17.066666z" fill="#f1cb35" p-id="2424"></path></svg>