<?xml version="1.0" encoding="UTF-8"?>
<svg width="144px" height="31px" viewBox="0 0 144 31" version="1.1" xmlns="http://www.w3.org/2000/svg" xmlns:xlink="http://www.w3.org/1999/xlink">
    <!-- Generator: Sketch 56.2 (81672) - https://sketch.com -->
    <title>logo_blue</title>
    <desc>Created with Sketch.</desc>
    <g id="Page-1" stroke="none" stroke-width="1" fill="none" fill-rule="evenodd">
        <g id="Artboard-Copy-2" transform="translate(-16.000000, -16.000000)">
            <g id="logo_blue" transform="translate(16.000000, 16.000000)">
                <g id="logo02-copy-29" fill-rule="nonzero">
                    <rect id="Rectangle-path" fill="#ffffff" x="9.19219524" y="0.0359421126" width="6.34378284" height="30.4609404"></rect>
                    <rect id="Rectangle-path" fill="#ffffff" x="18.5551156" y="0" width="6.34378284" height="30.5058681"></rect>
                    <rect id="Rectangle-path" fill="#ffffff" x="39.5992224" y="0" width="6.34378284" height="30.5058681"></rect>
                    <rect id="Rectangle-path" fill="#ffffff" x="29.1400677" y="0.0359421126" width="6.34378284" height="20.6936713"></rect>
                    <rect id="Rectangle-path" fill="#ffffff" x="0" y="0.0359421126" width="6.34378284" height="30.4609404"></rect>
                    <path d="M125.797393,12.471913 L125.437973,13.0290158 L130.380013,13.0290158 L130.380013,14.8261213 L124.305796,14.8261213 C124.070789,15.0346768 123.814836,15.2183603 123.542026,15.3742386 C123.234041,15.5210587 122.894381,15.5889907 122.553618,15.5719202 L121.82579,15.5719202 L121.82579,13.577133 L122.077385,13.577133 C122.441928,13.5578746 122.764823,13.3356673 122.913039,13.0020592 L123.245504,12.453942 L125.797393,12.471913 Z" id="Shape" fill="#ffffff"></path>
                    <path d="M122.059414,21.7899057 L122.059414,19.8310606 L122.957967,19.8310606 C123.365107,19.7878598 123.748478,19.6181711 124.054201,19.345842 L124.719131,18.8336669 L122.104341,15.9133702 L124.898841,15.9133702 L126.138844,17.2791705 L127.522615,15.4820649 L130.218273,15.4820649 L127.783196,18.8156959 L128.223487,19.2470012 C128.382457,19.4376017 128.586223,19.5857948 128.816531,19.6783066 C129.035609,19.7200051 129.258527,19.7380795 129.48146,19.7322197 L130.290158,19.7322197 L130.290158,21.5293253 L128.951315,21.5293253 C128.604536,21.5400246 128.257705,21.5098652 127.917979,21.4394701 C127.633174,21.3573792 127.371584,21.2096578 127.154208,21.0081647 L126.32754,20.3072935 C125.898944,20.7105521 125.432543,21.0716369 124.934783,21.3855569 C124.540506,21.6390976 124.082647,21.7761442 123.613911,21.7809202 L122.059414,21.7899057 Z" id="Shape" fill="#ffffff"></path>
                    <path d="M113.756786,14.8171358 L112.408957,14.8171358 L112.408957,13.0739434 L112.80432,13.0739434 L112.80432,12.3640867 L115.589834,12.3640867 L115.985197,13.0739434 L118.051869,13.0739434 L118.608971,12.4449564 L121.30463,12.4449564 L121.30463,13.0739434 L121.619123,13.0739434 L121.619123,14.8171358 L116.614184,14.8171358 L116.371574,15.2933689 L121.619123,15.2933689 L121.619123,21.727007 L118.842595,21.727007 L118.842595,20.2174382 L119.237958,20.2174382 L119.237958,17.1264166 L115.338239,17.1264166 L115.023745,17.5936641 C114.893118,17.7662268 114.68196,17.8581828 114.466643,17.8362733 L118.680856,17.8362733 C118.680856,17.8362733 118.680856,20.4330909 118.680856,21.5652675 L112.723451,21.5652675 L112.723451,18.1507668 L112.408957,18.1507668 L112.408957,16.281777 L112.750406,16.1200374 C112.92659,16.0070257 113.081675,15.8641041 113.208669,15.6977176 L113.756786,14.7991648 L113.756786,14.8171358 Z M116.452444,20.2084527 L116.452444,19.3099 L115.01476,19.3099 L115.01476,20.2084527 L116.452444,20.2084527 Z" id="Shape" fill="#ffffff"></path>
                    <path d="M127.51363,22.2841097 L127.51363,22.1223702 L130.451897,22.1223702 L130.371028,22.679473 C130.218273,23.5780258 129.6432,23.8655627 128.627835,23.8655627 L124.332753,23.8655627 L124.332753,24.3417956 L130.371028,24.3417956 L130.371028,25.9322341 L124.251883,25.9322341 L124.251883,26.4893369 L130.371028,26.4893369 L130.371028,28.0707899 L124.251883,28.0707899 L124.251883,30.5507955 L114.116207,30.5507955 L114.116207,28.7536899 L120.639701,28.7536899 C120.72864,28.7657182 120.818094,28.7355283 120.881556,28.6720664 C120.945017,28.6086045 120.975208,28.51915 120.963179,28.430211 L120.963179,28.0348477 L112.678523,28.0348477 L112.678523,26.4893369 L120.918252,26.4893369 L120.918252,25.9322341 L112.678523,25.9322341 L112.678523,24.3417956 L120.918252,24.3417956 L120.918252,23.8655627 L112.64258,23.8655627 L112.64258,22.355994 L127.27102,22.355994 C127.387832,22.355994 127.51363,22.355994 127.51363,22.2841097 Z" id="Shape" fill="#ffffff"></path>
                    <path d="M51.2175102,14.1791633 L58.4059326,14.1791633 L58.4059326,12.4359709 L61.4610123,12.4359709 L61.4610123,14.1791633 L68.5955217,14.1791633 L68.5955217,28.8076031 L61.4160846,28.8076031 L61.4160846,30.5507955 L58.4059326,30.5507955 L58.4059326,28.8884729 L51.2175102,28.8884729 L51.2175102,14.1791633 Z M58.4059326,26.4623803 L58.4059326,16.317719 L53.9131686,16.317719 L53.9131686,26.4623803 L58.4059326,26.4623803 Z M65.8998633,26.4623803 L65.8998633,16.317719 L61.4160846,16.317719 L61.4160846,26.4623803 L65.8998633,26.4623803 Z" id="Shape" fill="#ffffff"></path>
                    <path d="M91.8051405,15.3293109 L91.8051405,13.1637987 L92.4520986,13.1637987 C92.6036904,13.1874407 92.7559062,13.1251709 92.8474617,13.0020592 L93.2518104,12.3640867 L96.2350059,12.3640867 L96.0732666,13.0829289 L101.150089,13.0829289 L101.150089,15.3382964 L98.3286342,15.3382964 L98.3286342,16.1739506 L101.024293,16.1739506 L101.024293,18.3484484 L98.3286342,18.3484484 L99.0564621,18.9864209 C99.2116575,19.1738556 99.4539099,19.2659797 99.6944349,19.2290301 L101.06922,19.2290301 L101.06922,21.4843978 L98.8408092,21.4843978 C98.355591,21.4843978 98.0770392,21.4843978 97.9422567,21.3226582 L96.7381953,20.1185975 L95.7677589,21.2417884 C95.4851244,21.4392536 95.1396288,21.5256276 94.7973213,21.4843978 L91.9039821,21.4843978 L91.9039821,19.2739578 L93.8358705,19.2739578 C94.078479,19.2739578 94.123407,19.2290301 94.3210887,19.0313486 L95.039931,18.3125063 L91.8231117,18.3125063 L91.8231117,16.1739506 L95.20167,16.1739506 L95.20167,15.3742386 L91.8231117,15.3742386 L91.8051405,15.3293109 Z" id="Shape" fill="#ffffff"></path>
                    <path d="M92.2005042,21.8528044 L92.2005042,30.5507955 L109.686341,30.5507955 L109.686341,21.8528044 L92.2005042,21.8528044 Z M106.577349,25.0786089 L95.1028293,25.0786089 L95.1028293,24.0362877 L106.622276,24.0362877 L106.577349,25.0786089 Z M106.577349,28.3403557 L95.1028293,28.3403557 L95.1028293,27.2980344 L106.577349,27.2980344 L106.577349,28.3403557 Z" id="Shape" fill="#ffffff"></path>
                    <path d="M101.707193,12.5168406 L110.009821,12.5168406 L110.009821,21.3765714 L101.707193,21.3765714 L101.707193,12.5168406 Z M107.421988,14.4307582 L104.375895,14.4307582 L104.375895,19.4716394 L107.421988,19.4716394 L107.421988,14.4307582 Z" id="Shape" fill="#ffffff"></path>
                    <polygon id="Shape" fill="#ffffff" points="70.9407444 13.0649579 74.1755346 13.0649579 74.1755346 12.3640867 77.0868456 12.3640867 77.0868456 13.0649579 80.4833754 13.0649579 80.4833754 15.4281518 70.9407444 15.4281518"></polygon>
                    <path d="M81.1123623,13.1458276 L81.1123623,30.5507955 L83.7091797,30.5507955 L83.7091797,19.2020736 L85.5062856,19.2020736 L85.5062856,30.371085 L88.3367268,30.371085 L88.3367268,17.0006192 L83.7091797,17.0006192 L83.7091797,15.4281518 L87.3033909,15.4281518 C88.2019443,15.4281518 89.4689031,15.0956872 89.4689031,13.7748146 L89.4689031,12.3640867 L86.4677367,12.3640867 C86.5216503,12.9391605 86.3329542,13.1458276 85.9196199,13.1458276 L81.1123623,13.1458276 Z" id="Shape" fill="#ffffff"></path>
                    <polygon id="Shape" fill="#ffffff" points="70.9407444 19.9928001 70.9407444 17.7104759 71.4978474 17.7104759 71.0216142 15.9043847 74.1755346 15.9043847 74.7236517 17.7104759 76.3769889 17.7104759 77.329455 15.9043847 80.3216358 15.9043847 79.6117791 17.7913456 80.4025056 17.7913456 80.4025056 19.9928001"></polygon>
                    <polygon id="Shape" fill="#ffffff" points="77.0059761 30.5328246 74.4091584 30.5328246 74.4091584 23.7667218 70.9407444 23.7667218 70.9407444 21.4843978 74.4091584 21.4843978 74.4091584 20.4600475 77.0059761 20.4600475 77.0059761 21.4843978 80.3216358 21.4843978 80.3216358 23.7667218 77.0059761 23.7667218"></polygon>
                    <rect id="Rectangle-path" fill="#ffffff" x="77.8955433" y="24.3148391" width="2.28232414" height="6.20899992"></rect>
                    <rect id="Rectangle-path" fill="#ffffff" x="71.1653826" y="24.3148391" width="2.28232414" height="6.20899992"></rect>
                </g>
                <circle id="Oval-Copy-8" stroke="#ffffff" stroke-width="0.72" cx="138.757895" cy="9.85263159" r="4.10526315"></circle>
                <g id="R-Copy-8" transform="translate(136.500000, 6.000000)" fill="#ffffff" font-family="SFUIText-Regular, SF UI Text" font-size="6.56842104" font-weight="normal">
                    <text id="R">
                        <tspan x="0.2052633" y="6.12000732">R</tspan>
                    </text>
                </g>
            </g>
        </g>
    </g>
</svg>