<svg t="1575601249480" class="icon" viewBox="0 0 1024 1024" version="1.1" xmlns="http://www.w3.org/2000/svg" p-id="14376" width="200" height="200"><path d="M801.28 146.285714a55.222857 55.222857 0 0 1 54.857143 54.857143v360.228572l-54.857143-58.148572V201.142857H201.142857v653.531429h177.737143l51.931429 54.857143H201.142857a54.857143 54.857143 0 0 1-54.857143-54.857143V201.142857A55.222857 55.222857 0 0 1 201.142857 146.285714z m-87.405714 177.371429a27.428571 27.428571 0 0 1 0 54.857143H288.182857a27.428571 27.428571 0 0 1 0-54.857143z m-239.908572 109.714286a27.428571 27.428571 0 0 1 0 54.857142H288.182857a27.428571 27.428571 0 0 1 0-54.857142z m376.685715 205.897142a32.182857 32.182857 0 0 1-22.674286 54.857143h-402.285714a27.428571 27.428571 0 0 1 0-54.857143h345.6L731.428571 598.674286a27.428571 27.428571 0 0 1 38.765715-38.765715zM409.6 804.571429a32.182857 32.182857 0 0 1 22.674286-54.857143h402.285714a27.428571 27.428571 0 0 1 0 54.857143h-347.062857l40.228571 40.594285a27.062857 27.062857 0 0 1 0 38.765715 27.428571 27.428571 0 0 1-38.765714 0z" p-id="14377" fill="#A282FF"></path></svg>