<?xml version="1.0" encoding="UTF-8"?>
<svg width="32px" height="32px" viewBox="0 0 32 32" version="1.1" xmlns="http://www.w3.org/2000/svg" xmlns:xlink="http://www.w3.org/1999/xlink">
    <!-- Generator: Sketch 59 (86127) - https://sketch.com -->
    <title>Group 2</title>
    <desc>Created with Sketch.</desc>
    <g id="Page-1" stroke="none" stroke-width="1" fill="none" fill-rule="evenodd">
        <g id="04反馈管理02" transform="translate(-936.000000, -281.000000)">
            <g id="Group-2" transform="translate(936.000000, 281.000000)">
                <circle id="Oval-Copy-2" fill="#D0E9FF" cx="16" cy="16" r="16"></circle>
                <g id="pic_mine_sevicer" transform="translate(6.000000, 6.000000)" fill="#419AEE" fill-rule="nonzero">
                    <path d="M18.3177604,11.1497097 L18.3177604,10.5782231 C18.3627951,7.96728622 17.5928519,5.77094446 16.0754828,4.21333685 C15.3505546,3.46929932 14.4770474,2.90900102 13.4639642,2.51904758 C13.3018709,1.1115948 11.7845019,0 9.93394329,0 C8.08336488,0 6.55250127,1.10936897 6.40390255,2.51904758 C5.3908194,2.90900102 4.51731221,3.46929932 3.79240373,4.21335655 C2.2750347,5.77094446 1.50283581,7.95607829 1.55010643,10.5670152 L1.55010643,11.2662407 C1.15838754,11.6674217 0.847715309,12.2613242 1.0795768,13.1084786 C1.25294857,13.7382307 1.71219974,14.1954317 2.2750347,14.4016262 C2.56318958,14.5854049 2.89637917,14.6884824 3.2633448,14.6884824 C3.98827306,17.8485097 6.5975162,20 10.0149899,20 C13.4301882,20 16.0417068,17.8485097 16.7666351,14.6772745 C16.7891327,14.6772745 16.81165,14.6885021 16.8364033,14.6885021 C17.2844155,14.6885021 17.6986518,14.5271197 18.0318414,14.2649052 C18.4573363,14.0251066 18.7905457,13.6127176 18.9278659,13.0972707 C19.1687502,12.1783972 18.7657726,11.5486452 18.3177604,11.1497097 Z M16.3163671,12.8776424 C16.3163671,13.3012197 16.2825911,13.702381 16.2240618,14.090089 C15.1096703,15.8762872 13.2681147,17.0439414 10.9807827,17.294948 C10.8074505,17.0663376 10.4630022,16.9161828 10.0600049,16.9161828 C9.48593101,16.9161828 9.02442415,17.2254745 9.02442415,17.615428 C9.02442415,17.9941734 9.48367532,18.3146731 10.0600049,18.3146731 C10.5778249,18.3146731 10.9920414,18.0636469 11.0843665,17.7297331 C11.8205336,17.6490518 12.5229248,17.4675187 13.1893039,17.2030586 C14.1325991,16.8242934 14.9610914,16.2640148 15.6612268,15.5535814 C15.7760495,15.4392762 15.8796135,15.324971 15.9831577,15.1994579 C15.1546852,17.7319787 12.9349251,19.3567945 10.0487462,19.3567945 L10.0262486,19.3567945 C6.31159722,19.3567945 3.72487144,16.6898376 3.72487144,12.8776424 L3.71359298,12.5123307 C3.71359298,12.3509679 3.73613012,11.9161828 3.75862769,11.5038135 C5.30076977,10.9435152 6.69207722,8.80098724 7.25489239,7.8171117 C7.77271243,8.51637659 8.95687208,9.86552447 10.7736745,10.5647697 C11.4513123,10.8269841 12.1424645,10.965931 12.8201024,11.11386 C14.1663751,11.4007162 15.4428599,11.6741386 16.3051084,12.7969611 L16.3388845,12.8305652 L16.3163671,12.8776424 L16.3163671,12.8776424 Z" id="Shape"></path>
                </g>
            </g>
        </g>
    </g>
</svg>