<?xml version="1.0" encoding="UTF-8"?>
<svg width="121px" height="26px" viewBox="0 0 121 26" version="1.1" xmlns="http://www.w3.org/2000/svg" xmlns:xlink="http://www.w3.org/1999/xlink">
    <!-- Generator: Sketch 59 (86127) - https://sketch.com -->
    <title>Group 21 Copy@2x</title>
    <desc>Created with Sketch.</desc>
    <g id="Page-1" stroke="none" stroke-width="1" fill="none" fill-rule="evenodd">
        <g id="01人员管理01" transform="translate(-24.000000, -19.000000)">
            <g id="Group-21-Copy" transform="translate(24.000000, 19.000000)">
                <g id="Group-20-Copy">
                    <g id="logo02-copy" fill="#FFFFFF" fill-rule="nonzero">
                        <polygon id="Rectangle-path" points="7.7211189 0.0301901033 13.0496721 0.0301901033 13.0496721 25.6163027 7.7211189 25.6163027"></polygon>
                        <polygon id="Rectangle-path" points="15.5856408 0 20.9141941 0 20.9141941 25.6238502 15.5856408 25.6238502"></polygon>
                        <polygon id="Rectangle-path" points="33.2619463 0 38.5904996 0 38.5904996 25.6238502 33.2619463 25.6238502"></polygon>
                        <polygon id="Rectangle-path" points="24.4766263 0.0301901033 29.8051795 0.0301901033 29.8051795 17.4121421 24.4766263 17.4121421"></polygon>
                        <polygon id="Rectangle-path" points="0 0.0301901033 5.32855323 0.0301901033 5.32855323 25.6163027 0 25.6163027"></polygon>
                        <path d="M105.665361,10.4759659 L105.363461,10.9439125 L109.5146,10.9439125 L109.5146,12.4534176 L104.412472,12.4534176 C104.215074,12.6285968 104.000083,12.7828844 103.770932,12.9138167 C103.512236,13.0371403 103.226934,13.0942008 102.940705,13.0798623 L102.329355,13.0798623 L102.329355,11.4043115 L102.540686,11.4043115 C102.846889,11.3881352 103.11811,11.2014889 103.242606,10.9212699 L103.521864,10.4608708 L105.665361,10.4759659 Z" id="Shape"></path>
                        <path d="M102.525591,18.3027501 L102.525591,16.6573895 L103.280343,16.6573895 C103.622327,16.6211024 103.944345,16.4785699 104.201141,16.2498231 L104.759659,15.8196141 L102.563328,13.3666682 L104.910609,13.3666682 L105.952168,14.5138921 L107.114486,13.004387 L109.378744,13.004387 L107.333365,15.8045191 L107.703194,16.1668003 C107.836723,16.326898 108.007879,16.451375 108.20133,16.5290816 C108.385348,16.5641068 108.572591,16.5792888 108.759847,16.5743667 L109.439125,16.5743667 L109.439125,18.0838719 L108.314543,18.0838719 C108.023262,18.0928588 107.731936,18.0675261 107.446578,18.0083966 C107.207352,17.9394432 106.987626,17.8153625 106.805038,17.6461154 L106.110666,17.0574083 C105.750661,17.3961313 105.3589,17.6994298 104.940799,17.9631114 C104.609621,18.1760767 104.225035,18.291191 103.831313,18.2952026 L102.525591,18.3027501 Z" id="Shape"></path>
                        <path d="M95.5516772,12.4458701 L94.4195483,12.4458701 L94.4195483,10.9816501 L94.7516393,10.9816501 L94.7516393,10.3853955 L97.0913724,10.3853955 L97.4234634,10.9816501 L99.1593945,10.9816501 L99.6273407,10.4533232 L101.891599,10.4533232 L101.891599,10.9816501 L102.155762,10.9816501 L102.155762,12.4458701 L97.9517903,12.4458701 L97.7480069,12.845889 L102.155762,12.845889 L102.155762,18.2499174 L99.8235766,18.2499174 L99.8235766,16.9819331 L100.155668,16.9819331 L100.155668,14.3855842 L96.8800414,14.3855842 L96.6158779,14.7780556 C96.5061559,14.9230022 96.3287903,15.000242 96.1479317,14.9818388 L99.6877214,14.9818388 C99.6877214,14.9818388 99.6877214,17.1630737 99.6877214,18.114062 L94.6837117,18.114062 L94.6837117,15.2460021 L94.4195483,15.2460021 L94.4195483,13.6761168 L94.7063538,13.5402613 C94.8543414,13.4453355 94.9846076,13.3252863 95.0912779,13.1855276 L95.5516772,12.430775 L95.5516772,12.4458701 Z M97.8159345,16.9743856 L97.8159345,16.219633 L96.6083303,16.219633 L96.6083303,16.9743856 L97.8159345,16.9743856 Z" id="Shape"></path>
                        <path d="M107.106939,18.7178641 L107.106939,18.5820086 L109.57498,18.5820086 L109.507052,19.0499552 C109.378744,19.8047078 108.895703,20.0462286 108.042832,20.0462286 L104.435115,20.0462286 L104.435115,20.4462474 L109.507052,20.4462474 L109.507052,21.7821595 L104.367187,21.7821595 L104.367187,22.2501061 L109.507052,22.2501061 L109.507052,23.5784707 L104.367187,23.5784707 L104.367187,25.6615878 L95.8535779,25.6615878 L95.8535779,24.1520826 L101.333082,24.1520826 C101.407788,24.1621859 101.482926,24.1368275 101.536232,24.0835217 C101.589537,24.030216 101.614896,23.9550774 101.604792,23.8803717 L101.604792,23.5482806 L94.6459738,23.5482806 L94.6459738,22.2501061 L101.567055,22.2501061 L101.567055,21.7821595 L94.6459738,21.7821595 L94.6459738,20.4462474 L101.567055,20.4462474 L101.567055,20.0462286 L94.6157834,20.0462286 L94.6157834,18.7782443 L106.903156,18.7782443 C107.001274,18.7782443 107.106939,18.7782443 107.106939,18.7178641 Z" id="Shape"></path>
                        <path d="M43.0208972,11.9099957 L49.0589179,11.9099957 L49.0589179,10.4457757 L51.6250766,10.4457757 L51.6250766,11.9099957 L57.6178121,11.9099957 L57.6178121,24.1973678 L51.587339,24.1973678 L51.587339,25.6615878 L49.0589179,25.6615878 L49.0589179,24.2652955 L43.0208972,24.2652955 L43.0208972,11.9099957 Z M49.0589179,22.2274636 L49.0589179,13.7063069 L45.285155,13.7063069 L45.285155,22.2274636 L49.0589179,22.2274636 Z M55.3535544,22.2274636 L55.3535544,13.7063069 L51.587339,13.7063069 L51.587339,22.2274636 L55.3535544,22.2274636 Z" id="Shape"></path>
                        <path d="M77.113071,12.876079 L77.113071,11.0571253 L77.6564931,11.0571253 C77.7838248,11.0769838 77.9116807,11.0246794 77.9885841,10.9212699 L78.3282228,10.3853955 L80.8340014,10.3853955 L80.6981462,10.9891976 L84.9624979,10.9891976 L84.9624979,12.8836266 L82.5925752,12.8836266 L82.5925752,13.5855465 L84.8568331,13.5855465 L84.8568331,15.4120477 L82.5925752,15.4120477 L83.2039248,15.9479221 C83.3342834,16.1053606 83.5377669,16.1827416 83.7397993,16.1517052 L84.8945703,16.1517052 L84.8945703,18.0461343 L83.0227841,18.0461343 C82.6152179,18.0461343 82.3812441,18.0461343 82.2680317,17.9102788 L81.2566628,16.8989103 L80.4415303,17.842351 C80.2041276,18.0082148 79.9139234,18.0807659 79.6263972,18.0461343 L77.1960945,18.0461343 L77.1960945,16.1894429 L78.8188124,16.1894429 C79.0225952,16.1894429 79.0603331,16.1517052 79.2263786,15.9856597 L79.8301807,15.3818577 L77.1281662,15.3818577 L77.1281662,13.5855465 L79.9660359,13.5855465 L79.9660359,12.9138167 L77.1281662,12.9138167 L77.113071,12.876079 Z" id="Shape"></path>
                        <path d="M77.4451628,18.3555828 L77.4451628,25.6615878 L92.1326476,25.6615878 L92.1326476,18.3555828 L77.4451628,18.3555828 Z M89.5212041,22.9293834 L89.5212041,23.8048965 L79.8830131,23.8048965 L79.8830131,22.9293834 L89.5212041,22.9293834 Z M89.5589414,20.1896316 L89.5212041,21.0651446 L79.8830131,21.0651446 L79.8830131,20.1896316 L89.5589414,20.1896316 Z" id="Shape"></path>
                        <path d="M85.4304448,10.5137034 L92.4043586,10.5137034 L92.4043586,17.9555639 L85.4304448,17.9555639 L85.4304448,10.5137034 Z M90.230671,12.1213265 L87.67206,12.1213265 L87.67206,16.3554885 L90.230671,16.3554885 L90.230671,12.1213265 Z" id="Shape"></path>
                        <polygon id="Shape" points="59.5877164 10.9741026 62.3048257 10.9741026 62.3048257 10.3853955 64.7502241 10.3853955 64.7502241 10.9741026 67.6031888 10.9741026 67.6031888 12.9591019 59.5877164 12.9591019"></polygon>
                        <path d="M68.1315157,11.0420303 L68.1315157,25.6615878 L70.3127503,25.6615878 L70.3127503,16.1290627 L71.8222559,16.1290627 L71.8222559,25.5106373 L74.1997262,25.5106373 L74.1997262,14.2799189 L70.3127503,14.2799189 L70.3127503,12.9591019 L73.3317607,12.9591019 C74.0865138,12.9591019 75.1507145,12.6798434 75.1507145,11.5703571 L75.1507145,10.3853955 L72.6298407,10.3853955 C72.6751262,10.8684372 72.5166283,11.0420303 72.1694421,11.0420303 L68.1315157,11.0420303 Z" id="Shape"></path>
                        <polygon id="Shape" points="59.5877164 16.793245 59.5877164 14.8761734 60.055663 14.8761734 59.6556441 13.3591207 62.3048257 13.3591207 62.7652248 14.8761734 64.1539695 14.8761734 64.9540072 13.3591207 67.4673334 13.3591207 66.8710788 14.9441011 67.5352611 14.9441011 67.5352611 16.793245"></polygon>
                        <polygon id="Shape" points="64.6822963 25.6464928 62.5010614 25.6464928 62.5010614 19.9632058 59.5877164 19.9632058 59.5877164 18.0461343 62.5010614 18.0461343 62.5010614 17.1857163 64.6822963 17.1857163 64.6822963 18.0461343 67.4673334 18.0461343 67.4673334 19.9632058 64.6822963 19.9632058"></polygon>
                        <polygon id="Rectangle-path" points="65.4295014 20.4236049 67.3465729 20.4236049 67.3465729 25.6389452 65.4295014 25.6389452"></polygon>
                        <polygon id="Rectangle-path" points="59.7764046 20.4236049 61.6934761 20.4236049 61.6934761 25.6389452 59.7764046 25.6389452"></polygon>
                    </g>
                    <circle id="Oval-Copy" stroke="#FFFFFF" stroke-width="0.689655172" cx="116.551724" cy="8.27586207" r="3.44827586"></circle>
                    <text id="R-Copy" font-family="SFUIText-Regular, SF UI Text" font-size="5.51724138" font-weight="normal" fill="#FFFFFF">
                        <tspan x="114.827586" y="9.82758621">R</tspan>
                    </text>
                </g>
            </g>
        </g>
    </g>
</svg>