<svg t="1579073152032" class="icon" viewBox="0 0 1024 1024" version="1.1" xmlns="http://www.w3.org/2000/svg" p-id="2047" width="200" height="200"><path d="M576.853333 88.746667c112.64 34.133333 194.56 129.706667 208.213334 245.76 0 6.826667 6.826667 13.653333 17.066666 13.653333 58.026667 3.413333 116.053333 23.893333 160.426667 61.44 3.413333 3.413333 6.826667 3.413333 10.24 3.413333h6.826667c6.826667-3.413333 10.24-6.826667 10.24-13.653333 0-10.24 3.413333-23.893333 3.413333-34.133333 0-177.493333-146.773333-324.266667-324.266667-324.266667-30.72 0-61.44 3.413333-88.746666 13.653333-6.826667 3.413333-13.653333 10.24-13.653334 17.066667s0 13.653333 10.24 17.066667zM389.12 771.413333c6.826667-6.826667 3.413333-17.066667-3.413333-23.893333-6.826667-6.826667-17.066667-3.413333-23.893334 3.413333l-98.986666 129.706667h-6.826667c-27.306667 0-51.2 23.893333-51.2 51.2s23.893333 51.2 51.2 51.2S307.2 959.146667 307.2 931.84c0-13.653333-3.413333-23.893333-13.653333-34.133333l95.573333-126.293334zM559.786667 771.413333c6.826667-6.826667 3.413333-17.066667-3.413334-23.893333-6.826667-6.826667-17.066667-3.413333-23.893333 3.413333l-98.986667 129.706667h-6.826666c-27.306667 0-51.2 23.893333-51.2 51.2s23.893333 51.2 51.2 51.2 51.2-23.893333 51.2-51.2c0-13.653333-3.413333-23.893333-13.653334-34.133333l95.573334-126.293334zM730.453333 771.413333c6.826667-6.826667 3.413333-17.066667-3.413333-23.893333-6.826667-6.826667-17.066667-3.413333-23.893333 3.413333l-98.986667 129.706667h-6.826667c-27.306667 0-51.2 23.893333-51.2 51.2s23.893333 51.2 51.2 51.2 51.2-23.893333 51.2-51.2c0-13.653333-3.413333-23.893333-13.653333-34.133333l95.573333-126.293334z" fill="#f1cb35" p-id="2048"></path><path d="M785.066667 385.706667c-17.066667 0-37.546667 3.413333-54.613334 6.826666-54.613333-109.226667-163.84-177.493333-283.306666-177.493333-157.013333 0-290.133333 116.053333-314.026667 273.066667C54.613333 512 0 583.68 0 669.013333c0 105.813333 85.333333 191.146667 187.733333 191.146667h10.24c3.413333 0 6.826667 0 10.24-3.413333l30.72-10.24c3.413333 0 6.826667-3.413333 10.24-6.826667l81.92-112.64c17.066667-20.48 51.2-27.306667 71.68-10.24 23.893333 17.066667 27.306667 47.786667 10.24 71.68-6.826667 6.826667-3.413333 17.066667 3.413334 23.893333s17.066667 3.413333 23.893333-3.413333l61.44-81.92c17.066667-20.48 51.2-27.306667 71.68-10.24 23.893333 17.066667 27.306667 47.786667 10.24 71.68-6.826667 6.826667-3.413333 17.066667 3.413333 23.893333 6.826667 6.826667 17.066667 3.413333 23.893334-3.413333l61.44-81.92c17.066667-20.48 51.2-27.306667 71.68-10.24 23.893333 17.066667 27.306667 47.786667 10.24 71.68l-34.133334 44.373333c-3.413333 6.826667-3.413333 13.653333 0 17.066667 3.413333 6.826667 10.24 10.24 13.653334 10.24h61.44c126.293333-6.826667 225.28-112.64 225.28-238.933333 3.413333-129.706667-102.4-235.52-235.52-235.52z" fill="#f1cb35" p-id="2049"></path></svg>