<svg t="1572225647885" class="icon" viewBox="0 0 1024 1024" version="1.1" xmlns="http://www.w3.org/2000/svg" p-id="2778" width="200" height="200"><path d="M521.165028 999.750758c-5.138501 0-10.322042-1.62142-14.991132-4.688106L131.942078 749.24432c-10.218952-6.71288-17.385229-19.939467-17.426265-32.167177l-1.328163-399.724149c-0.025022-7.435513 2.60228-14.179421 7.396479-18.990636 4.492936-4.507949 10.504201-6.991124 16.924826-6.991124 5.166526 0 10.375088 1.642439 15.062194 4.74816l375.67208 248.954078c10.187924 6.749913 17.303157 20.00052 17.303157 32.223226v396.520343c0 14.784951-10.481181 25.933717-24.381358 25.933717zM154.687002 716.285449l350.824314 230.442863V578.209498a3.567125 3.567125 0 0 0-0.143125-0.266233L153.313799 344.639896l1.234081 371.388328c0.042037 0.085075 0.090079 0.175153 0.139122 0.257225z" p-id="2779" fill="#cdcdcd"></path><path d="M525.444777 996.540947h-0.001001c-13.899175-0.001001-24.380357-11.149767-24.380356-25.932717V574.088888c0-12.221706 7.115233-25.473314 17.304158-32.223226l375.671079-248.953077c4.689108-3.106721 9.89767-4.748159 15.063195-4.74816 6.421625 0 12.43189 2.482174 16.924826 6.991124 4.7952 4.811215 7.421501 11.555122 7.396479 18.991637l-1.328164 399.723148c-0.042037 12.228712-7.207313 25.456299-17.427266 32.169179L540.43691 991.85284c-4.66909 3.066686-9.853632 4.688107-14.992133 4.688107z m15.653713-421.54026v368.517813l350.826315-230.441862c0.048042-0.082072 0.097085-0.17115 0.139122-0.257225l1.234081-371.389328-352.057394 233.304369a4.227703 4.227703 0 0 0-0.142124 0.266233z" p-id="2780" fill="#cdcdcd"></path><path d="M897.5127 345.847955c-6.248474 0-12.401864-2.915554-16.308286-8.387347-5.408738-7.575636-4.784191-17.636449 0.918805-24.460427L513.457277 74.12293c-2.159892-0.366321-7.737778 0.505443-12.216702 3.704245L151.903564 327.243658c-8.997882 6.423627-21.499833 4.336799-27.922459-4.660082-6.423627-8.997882-4.3378-21.498832 4.659081-27.92246l349.33601-249.415482c15.259367-10.896545 39.602691-16.163159 56.602582-5.141504L913.537738 285.650223c8.597531 5.569879 13.656963 14.462669 13.881159 24.396371 0.268235 11.893418-6.398605 23.58466-18.292023 32.075097a19.940467 19.940467 0 0 1-11.614174 3.726264z" p-id="2781" fill="#cdcdcd"></path></svg>