<svg t="1579086220113" class="icon" viewBox="0 0 1024 1024" version="1.1" xmlns="http://www.w3.org/2000/svg" p-id="2657" width="200" height="200"><path d="M631.466667 774.826667V119.466667C631.466667 54.613333 576.853333 0 512 0s-119.466667 54.613333-119.466667 119.466667v655.36c-20.48 27.306667-34.133333 61.44-34.133333 95.573333 0 85.333333 68.266667 153.6 153.6 153.6s153.6-68.266667 153.6-153.6c0-34.133333-13.653333-68.266667-34.133333-95.573333zM512 921.6c-27.306667 0-51.2-23.893333-51.2-51.2 0-23.893333 13.653333-40.96 34.133333-47.786667V392.533333c0-10.24 6.826667-17.066667 17.066667-17.066666s17.066667 6.826667 17.066667 17.066666v430.08c20.48 6.826667 34.133333 27.306667 34.133333 47.786667 0 27.306667-23.893333 51.2-51.2 51.2z" fill="#f1cb35" p-id="2658"></path></svg>